<svg width="26" height="25" viewBox="0 0 26 25" fill="none" xmlns="http://www.w3.org/2000/svg">
<path d="M22.6431 4.22153C22.7643 4.34695 22.8324 4.51683 22.8324 4.69393C22.8324 4.87103 22.7643 5.0409 22.6431 5.16632L21.2896 6.56344L18.6943 3.88697L20.0477 2.48985C20.1694 2.36441 20.3344 2.29395 20.5065 2.29395C20.6785 2.29395 20.8435 2.36441 20.9652 2.48985L22.6431 4.22019V4.22153ZM20.3722 7.50824L17.7768 4.83177L8.93568 13.9505C8.86426 14.0241 8.8105 14.114 8.77866 14.2128L7.73403 17.4433C7.71509 17.5022 7.7124 17.5654 7.72626 17.6257C7.74013 17.6861 7.77 17.7413 7.81255 17.7852C7.8551 17.8291 7.90864 17.8599 7.96719 17.8742C8.02574 17.8885 8.08699 17.8857 8.1441 17.8662L11.2767 16.7889C11.3724 16.7565 11.4595 16.7015 11.531 16.6283L20.3722 7.50957V7.50824Z" fill="black"/>
<path fill-rule="evenodd" clip-rule="evenodd" d="M3.82349 19.6918C3.82349 20.2242 4.02857 20.7348 4.39361 21.1112C4.75865 21.4877 5.25376 21.6992 5.77001 21.6992H20.0445C20.5608 21.6992 21.0559 21.4877 21.4209 21.1112C21.786 20.7348 21.991 20.2242 21.991 19.6918V11.6624C21.991 11.4849 21.9227 11.3147 21.801 11.1893C21.6793 11.0638 21.5143 10.9933 21.3422 10.9933C21.1701 10.9933 21.0051 11.0638 20.8834 11.1893C20.7617 11.3147 20.6934 11.4849 20.6934 11.6624V19.6918C20.6934 19.8693 20.625 20.0395 20.5033 20.1649C20.3816 20.2904 20.2166 20.3609 20.0445 20.3609H5.77001C5.59793 20.3609 5.43289 20.2904 5.31121 20.1649C5.18953 20.0395 5.12117 19.8693 5.12117 19.6918V4.97122C5.12117 4.79376 5.18953 4.62357 5.31121 4.49808C5.43289 4.3726 5.59793 4.3021 5.77001 4.3021H14.2049C14.377 4.3021 14.5421 4.23161 14.6637 4.10612C14.7854 3.98064 14.8538 3.81045 14.8538 3.63298C14.8538 3.45552 14.7854 3.28533 14.6637 3.15985C14.5421 3.03436 14.377 2.96387 14.2049 2.96387H5.77001C5.25376 2.96387 4.75865 3.17536 4.39361 3.55181C4.02857 3.92826 3.82349 4.43884 3.82349 4.97122V19.6918Z" fill="black"/>
</svg>
