<svg width="25" height="25" viewBox="0 0 25 25" fill="none" xmlns="http://www.w3.org/2000/svg">
<path d="M23.6601 11.975C22.7607 9.6485 21.1993 7.63654 19.1688 6.18778C17.1384 4.73902 14.7279 3.91697 12.2354 3.82324C9.74285 3.91697 7.3324 4.73902 5.30197 6.18778C3.27153 7.63654 1.71011 9.6485 0.810694 11.975C0.749951 12.143 0.749951 12.327 0.810694 12.495C1.71011 14.8215 3.27153 16.8335 5.30197 18.2822C7.3324 19.731 9.74285 20.553 12.2354 20.6468C14.7279 20.553 17.1384 19.731 19.1688 18.2822C21.1993 16.8335 22.7607 14.8215 23.6601 12.495C23.7208 12.327 23.7208 12.143 23.6601 11.975ZM12.2354 19.1174C8.18246 19.1174 3.90011 16.1121 2.34775 12.235C3.90011 8.35795 8.18246 5.35265 12.2354 5.35265C16.2883 5.35265 20.5707 8.35795 22.123 12.235C20.5707 16.1121 16.2883 19.1174 12.2354 19.1174Z" fill="black"/>
<path d="M12.2353 7.64746C11.3279 7.64746 10.4408 7.91656 9.68624 8.42072C8.93171 8.92488 8.34363 9.64146 7.99636 10.4799C7.64908 11.3182 7.55822 12.2408 7.73526 13.1308C7.9123 14.0208 8.34928 14.8384 8.99096 15.4801C9.63264 16.1217 10.4502 16.5587 11.3402 16.7358C12.2302 16.9128 13.1528 16.8219 13.9912 16.4747C14.8296 16.1274 15.5461 15.5393 16.0503 14.7848C16.5545 14.0303 16.8236 13.1432 16.8236 12.2357C16.8236 11.0188 16.3402 9.85179 15.4797 8.99132C14.6192 8.13086 13.4522 7.64746 12.2353 7.64746ZM12.2353 15.2945C11.6304 15.2945 11.039 15.1151 10.5359 14.779C10.0329 14.4429 9.64086 13.9652 9.40935 13.4063C9.17783 12.8473 9.11726 12.2323 9.23528 11.6389C9.35331 11.0456 9.64463 10.5006 10.0724 10.0728C10.5002 9.645 11.0452 9.35367 11.6386 9.23565C12.2319 9.11762 12.847 9.1782 13.4059 9.40971C13.9648 9.64123 14.4425 10.0333 14.7787 10.5363C15.1148 11.0393 15.2942 11.6307 15.2942 12.2357C15.2942 13.0469 14.9719 13.825 14.3982 14.3986C13.8246 14.9723 13.0466 15.2945 12.2353 15.2945Z" fill="black"/>
</svg>
