<svg width="23" height="25" viewBox="0 0 23 25" fill="none" xmlns="http://www.w3.org/2000/svg">
<path d="M17.9785 7.94429C17.9785 6.2113 17.29 4.54928 16.0646 3.32387C14.8392 2.09846 13.1772 1.41003 11.4442 1.41003C9.71121 1.41003 8.0492 2.09846 6.82379 3.32387C5.59838 4.54928 4.90995 6.2113 4.90995 7.94429C4.90995 15.5676 1.64282 17.7457 1.64282 17.7457H21.2456C21.2456 17.7457 17.9785 15.5676 17.9785 7.94429Z" stroke="black" stroke-width="2" stroke-linecap="round" stroke-linejoin="round"/>
<path d="M13.3279 22.1023C13.1364 22.4324 12.8616 22.7063 12.531 22.8968C12.2003 23.0872 11.8254 23.1875 11.4439 23.1875C11.0623 23.1875 10.6874 23.0872 10.3567 22.8968C10.0261 22.7063 9.75128 22.4324 9.55981 22.1023" stroke="black" stroke-width="2" stroke-linecap="round" stroke-linejoin="round"/>
</svg>
