<svg width="27" height="25" viewBox="0 0 27 25" fill="none" xmlns="http://www.w3.org/2000/svg">
<path d="M21.3354 19.5396L20.778 18.7094C20.366 18.9861 20.2192 19.523 20.4331 19.9708L21.3354 19.5396ZM16.5289 21.5324L17.0457 20.6763C16.8298 20.546 16.5727 20.5021 16.3258 20.5533L16.5289 21.5324ZM24.001 23.8254V24.8254C24.3813 24.8254 24.7287 24.6097 24.8973 24.2688C25.066 23.928 25.0266 23.5209 24.7959 23.2186L24.001 23.8254ZM25 11.4202C25 14.3093 23.3994 16.9492 20.778 18.7094L21.8929 20.3698C24.9605 18.31 27 15.0949 27 11.4202H25ZM13.5 2C20.0294 2 25 6.38026 25 11.4202H27C27 4.95032 20.7777 0 13.5 0V2ZM2 11.4202C2 6.38026 6.97061 2 13.5 2V0C6.22227 0 0 4.95032 0 11.4202H2ZM13.5 20.8404C6.97061 20.8404 2 16.4602 2 11.4202H0C0 17.8901 6.22227 22.8404 13.5 22.8404V20.8404ZM16.3258 20.5533C15.4229 20.7406 14.4763 20.8404 13.5 20.8404V22.8404C14.6127 22.8404 15.6954 22.7267 16.7321 22.5116L16.3258 20.5533ZM24.001 22.8254C21.3929 22.8254 18.9021 21.7969 17.0457 20.6763L16.0121 22.3885C18.043 23.6145 20.896 24.8254 24.001 24.8254V22.8254ZM20.4331 19.9708C21.2066 21.5894 22.304 23.2504 23.2062 24.4322L24.7959 23.2186C23.9514 22.1123 22.9359 20.5696 22.2377 19.1085L20.4331 19.9708Z" fill="black"/>
</svg>
