<svg width="20" height="22" viewBox="0 0 20 22" fill="none" xmlns="http://www.w3.org/2000/svg">
<path d="M6.53514 8.34814C6.7208 8.34814 6.89884 8.42189 7.03012 8.55317C7.16139 8.68445 7.23514 8.86249 7.23514 9.04814V17.4481C7.23514 17.6338 7.16139 17.8118 7.03012 17.9431C6.89884 18.0744 6.7208 18.1481 6.53514 18.1481C6.34949 18.1481 6.17144 18.0744 6.04017 17.9431C5.90889 17.8118 5.83514 17.6338 5.83514 17.4481V9.04814C5.83514 8.86249 5.90889 8.68445 6.04017 8.55317C6.17144 8.42189 6.34949 8.34814 6.53514 8.34814ZM10.0351 8.34814C10.2208 8.34814 10.3988 8.42189 10.5301 8.55317C10.6614 8.68445 10.7351 8.86249 10.7351 9.04814V17.4481C10.7351 17.6338 10.6614 17.8118 10.5301 17.9431C10.3988 18.0744 10.2208 18.1481 10.0351 18.1481C9.84949 18.1481 9.67145 18.0744 9.54017 17.9431C9.40889 17.8118 9.33514 17.6338 9.33514 17.4481V9.04814C9.33514 8.86249 9.40889 8.68445 9.54017 8.55317C9.67145 8.42189 9.84949 8.34814 10.0351 8.34814ZM14.2351 9.04814C14.2351 8.86249 14.1614 8.68445 14.0301 8.55317C13.8988 8.42189 13.7208 8.34814 13.5351 8.34814C13.3495 8.34814 13.1714 8.42189 13.0402 8.55317C12.9089 8.68445 12.8351 8.86249 12.8351 9.04814V17.4481C12.8351 17.6338 12.9089 17.8118 13.0402 17.9431C13.1714 18.0744 13.3495 18.1481 13.5351 18.1481C13.7208 18.1481 13.8988 18.0744 14.0301 17.9431C14.1614 17.8118 14.2351 17.6338 14.2351 17.4481V9.04814Z" fill="black"/>
<path fill-rule="evenodd" clip-rule="evenodd" d="M19.1297 4.84844C19.1297 5.21974 18.9822 5.57584 18.7196 5.83839C18.4571 6.10094 18.101 6.24844 17.7297 6.24844H17.0297V18.8484C17.0297 19.591 16.7347 20.3032 16.2096 20.8283C15.6845 21.3534 14.9723 21.6484 14.2297 21.6484H5.82969C5.08708 21.6484 4.37489 21.3534 3.84979 20.8283C3.32469 20.3032 3.02969 19.591 3.02969 18.8484V6.24844H2.32969C1.95838 6.24844 1.60229 6.10094 1.33974 5.83839C1.07719 5.57584 0.929688 5.21974 0.929688 4.84844V3.44844C0.929688 3.07713 1.07719 2.72104 1.33974 2.45849C1.60229 2.19594 1.95838 2.04844 2.32969 2.04844H7.22969C7.22969 1.67713 7.37719 1.32104 7.63974 1.05849C7.90229 0.795937 8.25838 0.648438 8.62969 0.648438L11.4297 0.648438C11.801 0.648438 12.1571 0.795937 12.4196 1.05849C12.6822 1.32104 12.8297 1.67713 12.8297 2.04844H17.7297C18.101 2.04844 18.4571 2.19594 18.7196 2.45849C18.9822 2.72104 19.1297 3.07713 19.1297 3.44844V4.84844ZM4.59489 6.24844L4.42969 6.33104V18.8484C4.42969 19.2197 4.57719 19.5758 4.83974 19.8384C5.10229 20.1009 5.45838 20.2484 5.82969 20.2484H14.2297C14.601 20.2484 14.9571 20.1009 15.2196 19.8384C15.4822 19.5758 15.6297 19.2197 15.6297 18.8484V6.33104L15.4645 6.24844H4.59489ZM2.32969 4.84844V3.44844H17.7297V4.84844H2.32969Z" fill="black"/>
</svg>
